<svg width="52" height="54" viewBox="0 0 52 54" fill="none" xmlns="http://www.w3.org/2000/svg">
<path d="M32.1349 2.61859L27.7248 0.131796L27.752 0C28.8104 0.239314 29.8722 0.45435 30.9238 0.728348C36.6841 2.21626 41.5792 5.32041 45.9045 9.37141C49.6802 12.9091 51.5663 17.5116 51.7767 22.6482C52.2448 34.0312 47.9535 43.2604 38.6957 49.6317C28.2642 56.8146 13.3785 54.4423 5.18596 44.672C1.99035 40.8569 0.565558 36.2856 0.124551 31.4091C-0.0993448 28.9536 -0.00435866 26.4286 0.273815 23.9765C0.731784 19.9533 2.44153 16.4537 5.2097 13.523C10.8953 7.50199 17.8022 3.8984 25.9031 2.80934C27.9216 2.53881 30.0079 2.76772 32.0603 2.76772L32.1315 2.61859H32.1349ZM44.2151 11.9449C43.1635 12.3958 42.0813 12.101 42.2102 11.4143C42.3764 10.5333 41.8031 10.3148 41.3723 9.98184C36.6942 6.3505 31.4157 4.89034 25.6249 5.86841C18.8843 7.00602 13.0087 10.0026 8.06947 14.893C4.99938 17.9312 3.30998 21.6042 3.03181 25.9257C2.91647 27.7397 2.90968 29.5883 3.11662 31.3918C3.58815 35.5156 4.64318 39.5042 7.46223 42.6396C13.1105 48.9242 20.1531 51.6295 28.444 50.3982C36.0327 49.2745 41.4266 44.7761 45.2192 38.1585C48.347 32.6994 49.5513 26.7963 48.4827 20.5255C47.9263 17.2723 46.566 14.3623 44.2117 11.9414L44.2151 11.9449Z" fill="black"/>
</svg>
