<svg width="56" height="49" viewBox="0 0 56 49" fill="none" xmlns="http://www.w3.org/2000/svg">
<path d="M27.7725 -0.117188C28.2646 -0.0693325 28.7322 0.212536 29.2031 0.673828H29.2021C29.5422 1.00424 29.8839 1.34273 30.1875 1.71777C35.3269 8.05655 40.9213 14.0688 45.458 20.917C49.4177 26.8944 52.8455 33.1443 55.1094 39.9893V39.9902C55.2311 40.3596 55.3658 40.7525 55.4102 41.1143C55.4514 41.4509 55.4157 41.7806 55.2061 42.0498C55.3493 42.3667 55.5137 42.646 55.6572 42.9336C55.7872 43.1942 55.8956 43.4574 55.917 43.7246L55.9209 43.8398C55.9112 44.2887 55.6915 44.5969 55.3809 44.7998C55.0766 44.9985 54.6854 45.0968 54.3174 45.1465L54.3164 45.1475C51.7901 45.4779 49.2589 45.8034 46.7246 46.0957L46.7256 46.0967C41.2455 46.7297 35.7647 47.3389 30.2852 47.958C21.3603 48.9639 12.4185 49.3122 3.4541 48.4834C2.90746 48.4317 2.34499 48.371 1.80078 48.2451L1.56934 48.1875C0.892857 48.0076 0.397574 47.6692 0.12207 47.1904C-0.153372 46.7117 -0.197562 46.1126 -0.0146484 45.4365C0.191493 44.6696 0.450203 43.9084 0.772461 43.1816C7.03919 28.9325 14.3874 15.2985 23.8975 2.91602C24.5897 2.0155 25.3912 1.17069 26.2666 0.451172C26.7833 0.0264645 27.2771 -0.165242 27.7725 -0.117188ZM27.3887 2.7832C17.2811 15.8197 9.6981 30.3076 2.97852 45.3428C3.07573 45.3892 3.14565 45.4229 3.19629 45.4482C3.26481 45.4826 3.28793 45.4915 3.30469 45.4941C3.74055 45.5427 4.18007 45.5846 4.61816 45.6123H4.61914C12.4962 46.1265 20.3631 45.9039 28.1953 44.9727C35.4196 44.1141 42.6323 43.0554 49.9268 42.7734C51.2249 42.7238 52.4996 42.4366 53.7949 42.2422C50.1207 35.1079 47.0023 27.8209 42.2451 21.4844C37.494 15.1561 32.5683 8.96025 27.7178 2.70605L27.3887 2.7832Z" fill="black" stroke="black" stroke-width="0.249092"/>
</svg>
