<svg width="124" height="83" viewBox="0 0 124 83" fill="none" xmlns="http://www.w3.org/2000/svg">
<path d="M117.023 -3.35325C115.925 -2.82757 114.75 -1.8979 113.641 -1.4898C113.626 -1.484 113.61 -1.47821 113.594 -1.4724C113.136 -1.30312 112.65 -1.15187 112.079 -0.976141C112.005 -0.953432 111.93 -0.930354 111.853 -0.90636C111.163 -0.690156 110.33 -0.426516 109.204 -0.0173513C105.437 1.34848 102.932 3.26054 102.169 3.84438C100.609 5.03511 98.8318 6.06359 96.4019 7.48855C96.1803 7.61853 95.9522 7.75124 95.7184 7.88891C95.529 8.00043 95.2652 7.91102 95.1291 7.6883C94.993 7.46544 95.0366 7.19392 95.2263 7.0822C95.4555 6.94722 95.6784 6.81618 95.8952 6.68897C95.8962 6.6884 95.8972 6.68782 95.8982 6.68724C98.3455 5.25185 100.087 4.24348 101.612 3.07984C102.395 2.48144 104.961 0.522655 108.831 -0.881441C109.969 -1.2944 110.817 -1.56531 111.51 -1.78201C111.585 -1.80551 111.659 -1.82801 111.73 -1.85008C111.732 -1.85056 111.734 -1.85104 111.735 -1.85152C112.31 -2.02759 112.782 -2.17561 113.219 -2.3369C113.229 -2.34053 113.238 -2.34417 113.247 -2.3478C114.368 -2.76034 115.526 -3.68368 116.593 -4.19443C116.794 -4.29053 117.052 -4.17881 117.17 -3.94633C117.288 -3.7139 117.223 -3.44919 117.023 -3.35325ZM50.3273 40.503C49.5813 41.4301 48.3147 42.2449 47.1332 42.8593C45.9311 43.4866 44.7781 43.9285 44.207 44.1072C43.6542 44.2781 43.1087 44.5806 42.477 44.9657C42.3325 45.0537 42.1837 45.146 42.0303 45.241C41.5232 45.5551 40.9456 45.9129 40.3029 46.2543C37.9184 47.5237 36.442 48.4936 35.4182 49.2055C35.2049 49.3537 35.0088 49.4926 34.8261 49.6219C34.8258 49.6221 34.8255 49.6224 34.8252 49.6226C34.144 50.105 33.6107 50.4807 33.075 50.7069C32.1021 51.1223 31.3091 51.4437 30.2739 51.7301C28.8465 52.1253 27.21 53.268 26.294 54.2455C26.2446 54.2985 26.1941 54.3536 26.1408 54.4101C25.4685 55.1258 24.6625 55.9919 23.3146 57.1235C22.1933 58.0644 21.1233 58.7444 20.162 59.31C19.8813 59.4756 19.6222 59.6229 19.3666 59.7696C18.7166 60.1428 18.1402 60.4728 17.6329 60.8266C16.8493 61.3726 16.1307 61.8539 15.4948 62.2635C15.4344 62.2939 15.2775 62.4227 15.2199 62.4582C13.2093 64.0222 11.9337 65.0027 10.9792 65.5981C10.0071 66.2143 9.38556 66.4512 8.92825 66.6278C8.7919 66.6797 8.67012 66.726 8.56034 66.7759C7.58731 67.2161 6.81472 67.741 5.89293 68.3733C5.68939 68.5127 5.47961 68.656 5.25372 68.8102C4.5131 69.3116 4.05681 69.7991 3.7412 70.2039C3.60256 70.3816 3.48382 70.5494 3.3754 70.7054C3.37353 70.7084 3.37167 70.7113 3.36981 70.7142C3.35499 70.7357 3.33998 70.7567 3.32531 70.7778C3.31425 70.7937 3.3039 70.8104 3.29276 70.8263C3.29073 70.835 3.28809 70.8419 3.2864 70.8474C3.28507 70.8517 3.28393 70.8549 3.28321 70.8571C3.28321 70.8576 3.28322 70.8581 3.28322 70.8587C3.27018 70.8971 3.25295 70.9241 3.24944 70.9297C3.24335 70.9395 3.2371 70.9473 3.23407 70.9515C3.21804 70.9734 3.19515 70.9996 3.17967 71.0167C3.13985 71.0608 3.06938 71.1361 2.95783 71.2525C2.86659 71.362 2.78984 71.4706 2.69343 71.6077C2.6874 71.6164 2.68137 71.6252 2.67533 71.6339C2.58098 71.768 2.46927 71.9253 2.32023 72.1189C2.18722 72.2924 1.91727 72.2983 1.71347 72.1352C1.51012 71.9716 1.45331 71.6981 1.58403 71.5266C1.72253 71.3461 1.82945 71.1958 1.92412 71.0613C1.93006 71.0527 1.936 71.0441 1.94194 71.0354C2.04187 70.8941 2.13081 70.7664 2.24581 70.6296C2.28379 70.5843 2.32379 70.5387 2.36164 70.4969C2.42548 70.4173 2.493 70.3223 2.57208 70.2086C2.58796 70.1858 2.60473 70.1627 2.62137 70.1386C2.72563 69.9867 2.8575 69.7996 3.00906 69.6055C3.35965 69.1554 3.86812 68.6156 4.67769 68.0669C4.89377 67.9194 5.09331 67.7838 5.29759 67.6426C6.22551 67.0053 7.05929 66.4369 8.0974 65.9667C8.24014 65.902 8.37966 65.8504 8.53536 65.7888C8.98962 65.6137 9.52896 65.4052 10.4331 64.8322C11.3512 64.2597 12.6106 63.2915 14.6414 61.7108C14.7127 61.6669 14.9071 61.5073 14.982 61.4696C15.6056 61.0676 16.3164 60.5916 17.0869 60.0545C17.6214 59.6819 18.2332 59.3322 18.8963 58.9513C19.1431 58.8099 19.3951 58.6644 19.6583 58.5093C20.6028 57.9535 21.6422 57.2928 22.721 56.3869C24.0343 55.2837 24.8275 54.4359 25.4897 53.7283C25.5126 53.7035 25.5356 53.6786 25.5586 53.6538C25.5873 53.6232 25.6159 53.5928 25.6443 53.5627C26.6157 52.5242 28.357 51.2982 29.93 50.864C30.9232 50.5877 31.6797 50.2827 32.645 49.8709C33.1114 49.6739 33.5692 49.3514 34.2366 48.8794C34.426 48.7454 34.6357 48.5982 34.8708 48.4349C35.9129 47.7103 37.4099 46.7264 39.8197 45.4435C40.4422 45.1129 40.9946 44.7708 41.4985 44.4587C41.655 44.3618 41.8091 44.2667 41.9611 44.174C42.5962 43.7868 43.1991 43.4463 43.8394 43.2477C44.3713 43.0807 45.4862 42.6562 46.6545 42.0467C47.8199 41.4405 48.9835 40.6771 49.6385 39.8629C49.707 39.7779 49.7756 39.6934 49.843 39.6094C50.4235 38.8857 51.0365 38.1325 51.3759 37.3431C51.8787 35.4013 53.2918 33.8413 55.0144 32.5041C55.0586 32.4801 55.179 32.3876 55.2241 32.3653C57.3421 30.8438 59.8768 29.6787 61.7529 28.6112C61.7982 28.5854 61.8436 28.5596 61.889 28.5339C65.8734 26.2665 68.6879 24.4911 69.648 23.8849C69.6928 23.8566 69.7335 23.8309 69.7701 23.8078C69.8028 23.7872 69.8322 23.7682 69.8583 23.7518C70.2499 23.5061 70.5798 23.2623 70.9255 23.0071C70.9443 22.9932 70.9632 22.9793 70.982 22.9653C71.3473 22.6958 71.7338 22.4145 72.2134 22.1221C73.9962 21.0355 75.4244 20.1083 76.6602 19.2985C76.8886 19.1488 77.1108 19.0039 77.3269 18.862C77.3275 18.8616 77.3281 18.8613 77.3288 18.8609C78.2767 18.2386 79.1241 17.6836 79.9374 17.1888C81.4316 16.2801 82.403 15.6231 83.1574 15.0924C83.3931 14.9265 83.609 14.7722 83.8123 14.6266C84.2506 14.3125 84.6387 14.0353 85.0498 13.773C85.8235 13.2794 86.5084 12.7933 87.1928 12.3106C87.2536 12.2677 87.3145 12.2254 87.3751 12.1827C88.112 11.6631 88.8464 11.152 89.6576 10.6682C89.8456 10.5561 90.1096 10.6463 90.2468 10.8685C90.3836 11.0906 90.3426 11.3612 90.155 11.473C89.3681 11.9423 88.6511 12.4403 87.9155 12.959C87.8547 13.0019 87.7938 13.0454 87.7326 13.0886C87.051 13.5695 86.3523 14.0634 85.5654 14.5655C85.1697 14.8179 84.8022 15.0801 84.3734 15.3875C84.1679 15.5346 83.9465 15.6934 83.6983 15.8681C82.9334 16.4062 81.9499 17.072 80.4424 17.9889C79.6395 18.4773 78.8035 19.024 77.8565 19.6456C77.6393 19.7882 77.4157 19.9351 77.1847 20.0865C75.9468 20.8978 74.5119 21.8289 72.7205 22.9208C72.2676 23.1968 71.9014 23.4628 71.5376 23.7312C71.5172 23.7461 71.4967 23.7611 71.4763 23.776C71.1339 24.0287 70.7862 24.2865 70.3727 24.5458C70.3175 24.5805 70.2468 24.6244 70.162 24.6779C69.201 25.2846 66.3773 27.0665 62.3807 29.3407C62.3682 29.3477 62.3558 29.3546 62.3433 29.3615C59.6654 30.8859 58.1594 31.7507 57.178 32.6493C56.7491 33.0425 56.3662 33.3568 56.0214 33.6198C55.9861 33.6372 55.8921 33.7095 55.8575 33.7282C55.5882 33.9498 55.3428 34.1368 55.1177 34.3038C55.0213 34.3753 54.9302 34.443 54.843 34.5069C54.4657 34.7835 54.1739 34.9975 53.9024 35.2634C53.0892 36.0621 52.6199 36.7772 52.1574 37.8277C51.7736 38.7125 51.1055 39.5367 50.5306 40.2503C50.5298 40.2513 50.5289 40.2524 50.528 40.2534C50.4598 40.3382 50.3925 40.4213 50.3273 40.503ZM0.541991 74.7743C0.384744 74.9201 0.107658 74.8897 -0.0750776 74.7037C-0.257847 74.5175 -0.276935 74.2458 -0.119642 74.0998C0.268244 73.7393 0.638747 73.3964 1.0274 73.0358C1.18786 72.8872 1.46352 72.9194 1.646 73.1056C1.82838 73.2922 1.84852 73.5624 1.68822 73.7111C1.2997 74.0715 0.929468 74.4142 0.541991 74.7743ZM53.722 43.8807C53.5765 44.0439 53.3093 44.026 53.1256 43.8417C52.9423 43.6575 52.9111 43.3766 53.0561 43.2137C53.1328 43.1276 53.2564 42.9821 53.4233 42.7856C54.2271 41.8387 56.0233 39.7184 58.3831 37.3948C58.3887 37.3918 58.4039 37.3801 58.4096 37.3773C59.6158 36.2741 60.9692 35.1276 62.411 34.0577C62.7779 33.7853 63.1045 33.5391 63.4163 33.3042C64.7502 32.2995 65.5234 31.0188 68.2386 29.3555C79.6652 22.3654 91.7021 16.449 102.879 9.06579C106.101 6.94015 109.464 5.00102 112.857 3.16172C115.704 1.60068 121.179 -0.714086 122.458 -1.28142C122.656 -1.37167 122.907 -1.25309 123.021 -1.01859C123.136 -0.784128 123.071 -0.523148 122.875 -0.433398C121.611 0.126471 116.171 2.42358 113.341 3.97513C109.961 5.80702 106.609 7.73854 103.399 9.85693C92.2186 17.2417 80.751 24.1525 69.3308 31.1388C66.6462 32.7834 65.3083 33.0626 63.9796 34.0632C63.6673 34.2985 63.3391 34.5466 62.9693 34.8211C61.5076 35.9058 60.1387 37.0696 58.9236 38.186C56.6478 40.4375 54.9045 42.4919 54.1051 43.4345C53.9324 43.6375 53.8033 43.7894 53.722 43.8807ZM45.1225 49.2304C43.1488 50.6456 40.2067 52.4631 37.6326 54.0401C36.3778 54.8092 35.2047 55.5248 34.2849 56.1071C32.8489 57.0164 31.8385 57.4113 30.8241 57.8102C30.8134 57.8145 30.8026 57.8188 30.7919 57.823C29.7875 58.2153 28.7768 58.6156 27.3183 59.5291C25.8457 60.4514 23.9191 61.8924 21.9718 63.3409C21.9703 63.3419 21.9687 63.343 21.9671 63.344C20.6213 64.3459 19.3642 65.5656 18.2392 66.5117L18.3158 66.4575C17.8713 66.9026 17.4509 67.3078 17.0422 67.6329C12.369 71.452 9.283 73.7906 7.54093 74.7471C4.52573 76.4708 2.53957 79.8751 -0.686109 81.5051C-1.13551 81.6013 -1.18028 80.6292 -0.547414 80.289C-0.525709 80.2755 -0.504022 80.2621 -0.482354 80.2486C-0.276007 80.119 -0.0912219 79.9965 0.142115 79.8137C0.463293 79.5339 0.690873 79.3092 0.899244 79.103C1.44187 78.5649 5.31178 74.9438 7.00427 73.9788C8.66984 73.0651 10.8537 69.9984 15.7201 66.0127C16.1393 65.6789 16.6404 65.3444 17.1904 65.0037C17.2011 64.9971 17.2303 64.9731 17.2416 64.9674C18.527 64.3194 20.0586 63.5849 21.4106 62.5788C21.4159 62.575 21.4211 62.5711 21.4264 62.5672C23.3562 61.1314 25.3025 59.6758 26.7982 58.7389C28.3076 57.7936 29.3679 57.3737 30.3818 56.9786C30.3918 56.9748 30.4017 56.9711 30.4117 56.9673C31.4203 56.5696 32.3774 56.197 33.7617 55.3204C34.7011 54.7258 35.8871 54.0004 37.1484 53.2275C39.7107 51.6577 42.6104 49.8683 44.5663 48.4659C44.7423 48.3399 45.0106 48.4084 45.1643 48.6195C45.3178 48.8305 45.2985 49.1041 45.1225 49.2304ZM48.3693 54.1437C43.2683 58.8399 37.3606 62.4086 31.1005 65.1846C29.6054 66.1214 27.5062 67.4038 25.4085 68.6767C25.385 68.6906 25.3615 68.7045 25.338 68.7183C23.9109 69.5846 22.4799 70.4505 21.2626 71.1917L21.7262 70.8633C21.2711 71.1937 20.8485 71.5169 20.4734 71.8143C16.1922 75.2984 13.3423 78.0502 11.641 78.9729C10.0484 79.8782 9.69642 80.2282 9.173 80.7437C9.15871 80.7574 9.14441 80.7711 9.1301 80.7848C9.12972 80.7862 9.12934 80.7877 9.12896 80.7892C9.11987 80.8154 9.10992 80.8351 9.1044 80.8448C9.09315 80.8647 9.08204 80.879 9.07789 80.8844C9.0683 80.8967 9.05916 80.906 9.05599 80.9094C9.04302 80.9233 9.0275 80.9385 9.01721 80.948C8.92312 81.035 8.60535 81.311 8.35367 81.5069C8.09242 81.7109 7.88256 81.8476 7.66728 81.9823C7.64551 81.9957 7.62371 82.0093 7.6019 82.0228C7.40789 82.1438 7.19578 82.2766 6.89915 82.4871C6.71973 82.6139 6.44565 82.5494 6.28105 82.3486C6.11835 82.1461 6.12419 81.8869 6.30701 81.7564C6.61835 81.5357 6.84328 81.3952 7.03757 81.2743C7.0592 81.2609 7.08067 81.2477 7.1031 81.2336C7.31364 81.1002 7.49429 80.9823 7.72665 80.8012C8.0436 80.5266 8.27973 80.2944 8.48203 80.0952C9.02531 79.5607 9.42855 79.1615 11.1038 78.2067C12.7229 77.3313 15.4893 74.659 19.8678 71.0892C20.2503 70.7856 20.682 70.4549 21.1479 70.1162L20.7499 70.3981C21.9685 69.6562 23.3999 68.79 24.8251 67.9249C24.8489 67.9103 24.8728 67.8957 24.8968 67.8811C26.9947 66.608 29.0902 65.3296 30.581 64.3955C36.3927 60.7546 41.7138 56.6539 47.8125 53.3795C48.8449 52.6399 49.792 51.9831 50.6778 51.3681C53.2687 49.5686 55.2559 48.1784 56.8419 46.4C57.1828 46.0146 58.2243 45.1739 59.7275 43.9806C60.1752 43.626 60.6497 43.2503 61.1759 42.8339C61.3754 42.676 61.5811 42.5131 61.793 42.3453L61.634 42.4505C62.8009 41.5924 64.1399 40.6086 65.6133 39.514C65.9795 39.2421 66.304 38.9972 66.6144 38.763C67.9424 37.7619 68.9899 36.9703 71.6925 35.3143C75.0158 33.2752 80.6997 30.0418 83.7728 28.3805C85.3168 27.5436 86.1975 27.1069 86.8338 26.802C87.0102 26.7175 87.1661 26.6449 87.3088 26.5778C87.6816 26.4025 87.9705 26.2665 88.3375 26.0705C90.9918 24.6535 92.7354 23.4757 95.5751 21.5176C95.7534 21.3948 96.0171 21.4708 96.1642 21.6865C96.3111 21.9023 96.2865 22.1768 96.1085 22.2996C93.2673 24.2588 91.4984 25.4538 88.8102 26.8887C88.4273 27.0932 88.1179 27.2383 87.7388 27.4165C87.5982 27.4826 87.4479 27.5532 87.2807 27.6332C86.6552 27.9329 85.7846 28.3644 84.2498 29.1962C81.1844 30.8533 75.5126 34.08 72.2016 36.1117C69.5271 37.7504 68.5 38.5252 67.1776 39.5221C66.8667 39.7566 66.541 40.0033 66.1721 40.2772C64.678 41.3871 63.3212 42.3844 62.1428 43.2511L62.3311 43.1264C62.1347 43.282 61.9437 43.4333 61.7581 43.5802C61.232 43.9964 60.7582 44.3719 60.3128 44.7248C58.7771 45.9436 57.8008 46.7358 57.5078 47.0667C55.8664 48.9076 53.7913 50.3587 51.1749 52.1752C50.2974 52.7843 49.3698 53.4269 48.3693 54.1437ZM106.375 15.4398C106.196 15.5585 105.933 15.4776 105.79 15.2593C105.646 15.041 105.676 14.7673 105.856 14.6483C106.799 14.0246 107.494 13.5607 108.022 13.207C108.999 12.5524 109.493 12.2256 110.232 11.8162C112.173 10.7421 114.036 9.71669 115.718 8.80439C118.518 7.28417 120.798 6.09282 122.044 5.50095C122.236 5.40986 122.486 5.52593 122.604 5.75856C122.722 5.99109 122.664 6.25173 122.473 6.34251C121.24 6.92828 118.985 8.10547 116.2 9.61721C114.522 10.5276 112.656 11.5562 110.706 12.635C109.989 13.0317 109.526 13.3379 108.569 13.9783C108.044 14.3305 107.341 14.801 106.375 15.4398Z" fill="black"/>
</svg>
