<svg width="103" height="75" viewBox="0 0 103 75" fill="none" xmlns="http://www.w3.org/2000/svg">
<path d="M96.6846 -3.03384C95.8021 -2.51523 94.9351 -1.63905 93.9912 -1.23329C93.978 -1.22767 93.9649 -1.22203 93.9517 -1.2164C93.5752 -1.0565 93.1807 -0.921084 92.6951 -0.752353C92.6333 -0.730909 92.5697 -0.709163 92.505 -0.686594C91.9267 -0.484474 91.2218 -0.235203 90.2886 0.135245C87.1393 1.38876 85.1359 3.13386 84.5044 3.68268C83.2601 4.76881 81.7744 5.70398 79.745 6.97596C79.5606 7.09149 79.3708 7.20914 79.1765 7.33108C79.0191 7.42987 78.777 7.33263 78.6356 7.11325C78.4942 6.89373 78.5072 6.63559 78.6646 6.53681C78.8549 6.41745 79.0399 6.30136 79.22 6.18849C79.2208 6.18797 79.2216 6.18746 79.2225 6.18695C81.2637 4.90743 82.7155 3.99328 83.9309 2.93257C84.5736 2.3734 86.6276 0.586093 89.8517 -0.696749C90.7923 -1.06956 91.5077 -1.32483 92.0871 -1.52677C92.1505 -1.5488 92.2123 -1.56994 92.2722 -1.5907C92.2736 -1.59116 92.275 -1.59161 92.2765 -1.59206C92.7649 -1.76176 93.1395 -1.88886 93.5032 -2.04405C93.5109 -2.04757 93.5185 -2.05108 93.5262 -2.0546C94.4785 -2.46351 95.3243 -3.32976 96.1787 -3.83177C96.339 -3.92562 96.5816 -3.82255 96.7215 -3.60228C96.8611 -3.38206 96.8449 -3.12805 96.6846 -3.03384ZM40.5531 35.4527C39.9069 36.2584 38.7808 36.9095 37.7287 37.3795C36.6531 37.8628 35.6472 38.1583 35.1238 38.2814C34.6237 38.3946 34.1406 38.6308 33.5879 38.9352C33.4605 39.0054 33.3335 39.0767 33.1942 39.1554C32.736 39.414 32.2307 39.6989 31.6592 39.9673C29.5404 40.9656 28.2434 41.7665 27.3516 42.3568C27.2754 42.4073 27.2019 42.4565 27.1307 42.5045C27.0959 42.5207 27.0051 42.5924 26.9712 42.6103C26.8713 42.6847 26.7761 42.7562 26.6849 42.8248C26.6846 42.825 26.6843 42.8252 26.684 42.8254C26.0921 43.2705 25.6489 43.6066 25.1691 43.8172C24.3148 44.1928 23.6065 44.4973 22.6719 44.7801C21.382 45.167 19.9552 46.3517 19.2344 47.3633C19.1946 47.4187 19.1546 47.4759 19.1138 47.5332C18.5937 48.2671 17.9605 49.1736 16.9319 50.4052C16.2267 51.2512 15.5442 51.9346 14.905 52.534C14.7704 52.6602 14.6372 52.7833 14.5057 52.9038C14.2939 53.0978 14.0863 53.2847 13.8923 53.4614C13.4 53.91 12.9629 54.317 12.6006 54.7336C10.3572 57.3293 8.96735 58.6574 7.96175 59.3871C7.1912 59.9511 6.65764 60.1663 6.26774 60.3265C6.14867 60.3764 6.04759 60.4146 5.95584 60.4587C5.13128 60.8584 4.51059 61.3178 3.74961 61.8856C3.5832 62.0088 3.40845 62.1385 3.22265 62.2749C2.61035 62.7209 2.2575 63.155 2.01749 63.5224C1.91161 63.6841 1.82355 63.8361 1.74653 63.9738C1.74518 63.9765 1.74383 63.9791 1.74248 63.9818C1.73154 64.0012 1.72034 64.0202 1.70949 64.0394C1.70131 64.0538 1.69388 64.0689 1.68563 64.0834C1.68486 64.0913 1.68332 64.0976 1.68246 64.1026C1.68179 64.1065 1.68116 64.1095 1.68077 64.1114C1.68084 64.1119 1.68092 64.1124 1.68099 64.1129C1.67388 64.1479 1.66145 64.1725 1.65893 64.1775C1.65455 64.1864 1.64978 64.1934 1.64752 64.1972C1.63553 64.217 1.61774 64.2405 1.60564 64.2559C1.57452 64.2955 1.51907 64.3631 1.43116 64.4673C1.36262 64.5638 1.30037 64.6677 1.23063 64.7892C1.2262 64.7971 1.22177 64.8049 1.21733 64.8127C1.14772 64.9331 1.06522 65.0741 0.953386 65.2466C0.851662 65.4035 0.598307 65.4066 0.388974 65.2515C0.179623 65.0963 0.0940117 64.8417 0.195949 64.6845C0.301566 64.5217 0.378799 64.389 0.448718 64.2683C0.453068 64.2606 0.457404 64.2528 0.461749 64.2451C0.534136 64.1198 0.60392 64.0003 0.691462 63.8786C0.72056 63.8381 0.75152 63.7973 0.780989 63.7599C0.829515 63.6885 0.879469 63.603 0.937749 63.5003C0.949445 63.4797 0.961942 63.4589 0.9742 63.4371C1.05273 63.2978 1.14333 63.1363 1.26031 62.9585C1.52911 62.5477 1.91819 62.0724 2.58641 61.5849C2.76322 61.4553 2.93156 61.3302 3.09454 61.2095C3.85693 60.6408 4.53045 60.1385 5.39909 59.7215C5.51862 59.664 5.64179 59.6132 5.77129 59.5604C6.15404 59.4055 6.6119 59.2198 7.32569 58.6969C8.28423 58.0015 9.64456 56.7082 11.8888 54.1114C12.2718 53.671 12.7418 53.2334 13.2478 52.7723C13.4394 52.5978 13.6411 52.4137 13.8422 52.2295C13.9725 52.1099 14.1041 51.9882 14.2369 51.8637C14.8703 51.2696 15.5398 50.5994 16.2306 49.7715C17.2503 48.5519 17.8741 47.661 18.3998 46.9214C18.4178 46.8957 18.4358 46.87 18.4538 46.8444C18.4764 46.8127 18.4988 46.7813 18.5211 46.7503C19.2995 45.6597 20.8321 44.3759 22.266 43.9451C23.166 43.6717 23.8472 43.3792 24.7017 43.0029C25.1209 42.8188 25.5025 42.529 26.0852 42.0914C26.1918 42.0113 26.306 41.9261 26.4291 41.8352C26.4711 41.813 26.5837 41.7241 26.6267 41.704C26.6913 41.6608 26.7584 41.6162 26.8281 41.57C27.736 40.9689 29.0547 40.1541 31.1976 39.1445C31.7518 38.8842 32.2353 38.6115 32.6911 38.3543C32.8334 38.2739 32.9651 38.2004 33.0993 38.1264C33.6549 37.8204 34.191 37.5519 34.7703 37.4204C35.2518 37.3089 36.2316 37.0216 37.2777 36.5517C38.3155 36.088 39.3479 35.4769 39.9201 34.766C39.9786 34.6927 40.038 34.6193 40.0973 34.5457C40.6078 33.9117 41.1359 33.2611 41.4402 32.5331C42.3399 28.5814 47.3087 26.8179 50.2915 25.19C50.3305 25.1688 50.3696 25.1475 50.4086 25.1263C53.8547 23.2449 56.262 21.7364 57.0855 21.2201C57.1238 21.1961 57.1587 21.1741 57.1901 21.1545C57.2182 21.1369 57.2433 21.1206 57.2657 21.1067C57.6018 20.8973 57.8825 20.6855 58.1756 20.4642C58.1916 20.4521 58.2076 20.4399 58.2236 20.4278C58.5337 20.1939 58.8608 19.9505 59.2717 19.7017C60.8007 18.7758 62.0158 17.9781 63.0649 17.279C63.259 17.1497 63.448 17.0244 63.6318 16.9015C63.6324 16.9011 63.6329 16.9008 63.6335 16.9004C64.4403 16.3609 65.154 15.8828 65.8499 15.4539C67.1173 14.6727 67.9395 14.0954 68.5725 13.6294C68.7706 13.4834 68.952 13.3473 69.1229 13.2186C69.4926 12.9403 69.8142 12.6978 70.1604 12.4687C70.8138 12.0364 71.3912 11.6034 71.9585 11.1785C72.0091 11.1406 72.0599 11.1032 72.1103 11.0655C72.7238 10.6061 73.3427 10.149 74.0223 9.72627C74.1802 9.62799 74.423 9.72734 74.5638 9.94724C74.7043 10.1671 74.6902 10.4248 74.5323 10.5231C73.8719 10.9339 73.2683 11.3789 72.654 11.8387C72.6033 11.8766 72.5527 11.9152 72.5016 11.9535C71.9357 12.3774 71.3469 12.8171 70.6813 13.2575C70.3471 13.4786 70.0435 13.7074 69.681 13.9803C69.5081 14.1105 69.3219 14.2508 69.1131 14.4046C68.4705 14.8777 67.6374 15.4633 66.3576 16.2521C65.6701 16.6759 64.9649 17.1474 64.1585 17.6867C63.9736 17.8104 63.7832 17.9377 63.5867 18.0686C62.5349 18.7695 61.3132 19.5712 59.7757 20.5023C59.3875 20.7374 59.0771 20.9677 58.7683 21.2007C58.7509 21.2136 58.7335 21.2266 58.7161 21.2396C58.4255 21.459 58.1298 21.683 57.7746 21.9042C57.7272 21.9337 57.6665 21.9711 57.5938 22.0167C56.769 22.5338 54.3522 24.049 50.8937 25.9371C50.8829 25.9428 50.8722 25.9485 50.8614 25.9542C48.5403 27.2217 47.2348 27.9349 46.405 28.7195C45.7568 29.3345 45.2069 29.7282 44.7592 30.0302C44.6734 30.0881 44.5923 30.1428 44.5147 30.1944C44.1795 30.4173 43.9158 30.5928 43.6812 30.8142C42.9596 31.4914 42.5406 32.1309 42.1525 33.082C41.8229 33.8886 41.2324 34.6098 40.731 35.232C40.7302 35.2329 40.7295 35.2338 40.7287 35.2347C40.669 35.3087 40.6101 35.3813 40.5531 35.4527ZM-0.370799 67.648C-0.499227 67.778 -0.759773 67.7419 -0.951742 67.5655C-1.14376 67.3888 -1.19459 67.1385 -1.06634 67.0085C-0.749837 66.6871 -0.445506 66.3786 -0.133224 66.0609C-0.00159447 65.927 0.25938 65.9621 0.451738 66.1381C0.644066 66.3144 0.694763 66.5652 0.563063 66.6995C0.250809 67.0172 -0.0543123 67.3265 -0.370799 67.648ZM43.6833 39.0473C43.5563 39.1878 43.3158 39.1419 43.1465 38.946C42.9774 38.7501 42.943 38.4779 43.0697 38.3376C43.1367 38.2634 43.2445 38.1374 43.3901 37.9674C44.4416 36.7405 47.433 33.2484 51.1724 30.4695C51.4868 30.2357 51.7676 30.0231 52.0355 29.8201C53.1823 28.9513 53.8067 27.7796 56.1447 26.3755C65.987 20.4634 76.3926 15.4836 85.6708 8.71384C88.3482 6.75934 91.116 4.97689 93.9147 3.21836C96.245 1.75933 100.763 -0.574587 101.779 -1.18245C101.937 -1.27606 102.178 -1.17314 102.32 -0.953543C102.46 -0.734002 102.447 -0.480954 102.289 -0.387139C101.278 0.217851 96.7697 2.54646 94.4464 4.00126C91.6507 5.75806 88.8865 7.53751 86.2128 9.48925C76.9205 16.2693 67.0805 22.246 57.2263 28.1652C54.9114 29.5555 53.7237 29.7254 52.5819 30.5905C52.3133 30.794 52.0312 31.0083 51.7138 31.2443C48.0271 33.9842 45.0789 37.4226 44.0173 38.6618C43.8668 38.8373 43.7543 38.9687 43.6833 39.0473ZM36.1012 43.278C34.4562 44.3804 32.0788 45.7349 29.935 46.959L29.988 46.9238C29.8611 47.0046 29.7358 47.0845 29.6123 47.1634C28.5522 47.8403 27.5752 48.4766 26.8133 49.0094C25.6325 49.8357 24.7813 50.2083 23.9347 50.5912C23.9256 50.5954 23.9166 50.5996 23.9076 50.6038C23.0641 50.9887 22.2177 51.3867 21.0822 52.3295C20.1403 53.1123 19.0213 54.2756 17.9146 55.5536C17.6776 55.8269 17.4396 56.1067 17.2026 56.3889C17.2015 56.39 17.2004 56.3912 17.1992 56.3923C15.8692 57.9766 14.9343 59.9491 13.8934 61.0442C10.2705 64.8789 7.61899 66.8894 6.13188 67.7752C3.5449 69.3203 2.08891 72.4156 -0.733695 73.8275C-1.1411 73.9025 -1.29258 73.0035 -0.739729 72.7053C-0.720967 72.6934 -0.702209 72.6815 -0.683472 72.6697C-0.506485 72.5564 -0.353198 72.4539 -0.153599 72.2882C0.117433 72.0346 0.301334 71.8357 0.467824 71.6551C0.913561 71.1753 4.09587 67.9185 5.534 67.0585C6.94727 66.2154 8.69009 63.5078 12.3528 59.6301C13.3821 58.5473 15.1449 57.3691 16.4924 55.7639C16.4961 55.7596 16.4998 55.7552 16.5035 55.7509C16.7491 55.4587 16.9974 55.1672 17.2452 54.882C18.3564 53.6014 19.4943 52.4202 20.4583 51.6185C21.6514 50.6271 22.548 50.2048 23.4117 49.8091C23.4202 49.8054 23.4287 49.8017 23.4372 49.7979C24.285 49.413 25.1058 49.0519 26.2525 48.2491C27.0378 47.6997 28.0317 47.0506 29.1025 46.367C29.2155 46.2948 29.3299 46.2218 29.4455 46.1481L29.4307 46.158C31.5738 44.9346 33.9365 43.5907 35.5773 42.4913C35.7302 42.3888 35.9724 42.4816 36.1171 42.6989C36.2616 42.9161 36.2539 43.1754 36.1012 43.278ZM39.1755 48.301C37.3767 49.9212 35.4749 51.3499 33.4968 52.6165L33.8197 52.4022C31.0458 54.3723 28.3285 55.9026 25.5965 57.4197C24.7414 58.1253 23.625 59.0754 22.48 60.1343C22.2336 60.3616 21.9832 60.5961 21.7323 60.8344C21.7163 60.8492 21.7003 60.864 21.6842 60.8788C20.2951 62.2001 18.8874 63.6403 17.8842 64.6953C14.3038 68.4832 11.9698 70.8564 10.4822 71.7429C9.09434 72.5753 8.80651 72.8912 8.38016 73.3586C8.36823 73.3712 8.35628 73.3839 8.34433 73.3965C8.34414 73.3979 8.34394 73.3993 8.34375 73.4007C8.33809 73.4251 8.33091 73.4434 8.3268 73.4524C8.31842 73.4709 8.30955 73.4841 8.30625 73.4891C8.2986 73.5005 8.29103 73.5091 8.28843 73.5123C8.27778 73.5251 8.26486 73.5391 8.25626 73.5479C8.17453 73.6313 7.91786 73.8726 7.70117 74.0539C7.47911 74.2398 7.29946 74.3615 7.11246 74.4835C7.09365 74.4956 7.07483 74.5077 7.05599 74.5198C6.88856 74.628 6.70578 74.7465 6.45401 74.9336C6.30049 75.0477 6.03272 74.9865 5.85712 74.7955C5.68172 74.6045 5.6646 74.3567 5.81741 74.2431C6.08155 74.047 6.27537 73.9217 6.44302 73.8135C6.46144 73.8019 6.48109 73.7888 6.50011 73.7765C6.68137 73.6573 6.83677 73.5513 7.03391 73.3867C7.30068 73.1355 7.48797 72.9312 7.65824 72.7449C8.09976 72.2615 8.43321 71.8973 9.88445 71.0277C11.2981 70.1843 13.5706 67.8846 17.1822 64.063C18.19 63.0031 19.6046 61.555 21.0083 60.2186C21.0247 60.2029 21.0411 60.1873 21.0574 60.1716C21.3105 59.9311 21.5632 59.6941 21.8123 59.4643C22.9734 58.3898 24.1072 57.4249 24.9742 56.7088C27.4011 54.6945 29.89 52.7108 32.6874 50.7833L32.4443 50.9448C34.4257 49.7154 36.4698 48.5422 38.6512 47.5144C39.531 46.9234 40.3922 46.3716 41.1475 45.8876C43.431 44.4259 45.1569 43.3242 46.5414 41.7956C46.8549 41.4544 47.7419 40.7818 49.0827 39.7998C49.4695 39.5158 49.8938 39.2066 50.3563 38.8694C51.4969 38.0386 52.8308 37.066 54.335 35.948C54.649 35.7145 54.9294 35.5021 55.197 35.2992C56.3464 34.4288 57.2423 33.748 59.5826 32.3425C62.4632 30.6126 67.3841 27.8645 70.0446 26.4383C71.3761 25.7248 72.1466 25.3483 72.6961 25.0915C72.8491 25.02 72.9845 24.9586 73.1085 24.9017C73.4323 24.7532 73.6833 24.6375 74.0011 24.4678C76.2963 23.2414 77.7789 22.1962 80.1914 20.432C80.3424 20.3216 80.5857 20.4061 80.7348 20.6203C80.8839 20.8345 80.8828 21.098 80.7319 21.2085C78.315 22.976 76.8097 24.0374 74.4828 25.2808C74.151 25.458 73.8818 25.5814 73.5522 25.7326C73.43 25.7886 73.2994 25.8483 73.1543 25.9162C72.6138 26.1688 71.8513 26.5412 70.5265 27.2511C67.8704 28.675 62.9565 31.4196 60.0848 33.1442C57.7678 34.5357 56.8876 35.203 55.7433 36.0697C55.4751 36.273 55.1936 36.487 54.8767 36.7226C53.3711 37.8417 52.0341 38.8173 50.8926 39.6487C50.4309 39.9853 50.0066 40.2948 49.6229 40.5767C48.2551 41.5784 47.4244 42.2125 47.1558 42.5048C45.7204 44.0883 43.9212 45.2363 41.6174 46.7107C40.8695 47.1898 40.0271 47.7289 39.1755 48.301ZM89.4162 14.944C89.2642 15.0548 89.0193 14.9707 88.8698 14.7566C88.7204 14.5426 88.7226 14.2792 88.8746 14.1684C89.6781 13.5828 90.2385 13.1629 90.686 12.8283C91.5172 12.2072 91.9133 11.9095 92.541 11.5233C94.1812 10.514 95.7572 9.5294 97.1553 8.65117C99.5174 7.16746 101.402 5.96919 102.454 5.35024C102.615 5.25519 102.859 5.35733 102.999 5.57759C103.139 5.79776 103.122 6.05273 102.96 6.14801C101.914 6.76351 100.041 7.95371 97.6858 9.4335C96.2855 10.3132 94.7036 11.3031 93.052 12.3194C92.4428 12.6942 92.0684 12.9746 91.2558 13.5821C90.8058 13.9182 90.2417 14.3424 89.4162 14.944Z" fill="black"/>
</svg>
