<svg width="71" height="51" viewBox="0 0 71 51" fill="none" xmlns="http://www.w3.org/2000/svg">
<path d="M65.7227 -3.99237C65.0863 -3.68342 64.4613 -3.01743 63.7745 -2.81309C63.7649 -2.81023 63.7553 -2.80736 63.7456 -2.8045C63.4648 -2.72092 63.164 -2.66011 62.8005 -2.58551C62.7541 -2.576 62.7065 -2.56651 62.6581 -2.55647C62.2273 -2.46716 61.6997 -2.3526 61.0031 -2.15609C58.6603 -1.4941 57.3004 -0.156956 56.8818 0.256019C56.0409 1.0863 55.0037 1.74644 53.6018 2.66155C53.4734 2.74544 53.3416 2.83041 53.2074 2.91869C53.0986 2.99022 52.8935 2.87277 52.7485 2.65571C52.6036 2.43852 52.5745 2.20409 52.6838 2.13222C52.8157 2.04542 52.9444 1.96102 53.0704 1.87868C53.071 1.87831 53.0716 1.87794 53.0722 1.87757C54.4883 0.952905 55.5071 0.304426 56.3317 -0.508933C56.7614 -0.932309 58.1617 -2.30601 60.5716 -2.98914C61.2783 -3.18912 61.8132 -3.30704 62.2482 -3.39767C62.2959 -3.40759 62.3425 -3.41692 62.3876 -3.42625C62.3887 -3.42643 62.3898 -3.42661 62.3909 -3.42679C62.7582 -3.5026 63.0476 -3.56093 63.3175 -3.64147C63.3231 -3.64337 63.3287 -3.64527 63.3344 -3.64717C64.0316 -3.85525 64.6442 -4.51729 65.2642 -4.81847C65.3825 -4.87586 65.5811 -4.73704 65.7074 -4.50873C65.8335 -4.28052 65.8402 -4.04966 65.7227 -3.99237ZM28.8499 24.9001C28.5003 25.5555 27.7553 26.0108 27.0273 26.3113C26.2953 26.6135 25.5539 26.7696 25.1832 26.8092C24.8201 26.8485 24.4913 27.0006 24.1138 27.2092C24.0272 27.257 23.9384 27.3077 23.8464 27.36C23.5427 27.5329 23.2038 27.7252 22.8061 27.8965C21.3445 28.5257 20.4796 29.0743 19.8798 29.4946C19.7567 29.5808 19.6427 29.6633 19.5362 29.7404C19.536 29.7405 19.5358 29.7406 19.5356 29.7408C19.1336 30.0315 18.834 30.2477 18.4896 30.3433C17.8788 30.5119 17.3702 30.6401 16.6878 30.6885C15.7494 30.7533 14.788 31.445 14.319 32.1283C14.293 32.1659 14.2669 32.2049 14.2402 32.2439C13.9015 32.7402 13.4816 33.3528 12.7378 34.0968C12.1161 34.7176 11.492 35.117 10.9087 35.4495C10.7422 35.5444 10.5858 35.6285 10.4289 35.715C10.0386 35.9295 9.69203 36.1208 9.39488 36.3498C8.57788 36.9795 7.88491 37.4629 7.29755 37.8295C6.55399 38.2945 5.97213 38.5788 5.50127 38.7513C4.84579 38.9936 4.39076 39.0236 4.06419 39.0434C3.96712 39.0482 3.87483 39.0568 3.79632 39.0684C3.09958 39.17 2.54395 39.4128 1.88176 39.7181C1.73444 39.7862 1.58292 39.8563 1.41859 39.9335C0.8791 40.1834 0.560886 40.5016 0.353129 40.7786C0.258991 40.9028 0.183655 41.0202 0.115433 41.1301C0.114263 41.1322 0.113093 41.1344 0.111923 41.1365C0.102398 41.1518 0.092694 41.1667 0.0833432 41.1818C0.0762926 41.1931 0.0699488 41.2052 0.0628913 41.2165C0.0624283 41.2233 0.0610061 41.2288 0.0602677 41.2332C0.0596776 41.2366 0.0591252 41.2392 0.058779 41.2409C0.0588482 41.2414 0.0589192 41.2418 0.0589885 41.2423C0.0527518 41.2727 0.0417388 41.2927 0.0395054 41.2968C0.0356325 41.304 0.0313914 41.3095 0.0293845 41.3125C0.0187623 41.3283 0.00300092 41.3464 -0.00767834 41.3581C-0.0351163 41.3882 -0.0840854 41.4392 -0.159622 41.5161C-0.217856 41.5896 -0.269074 41.67 -0.331715 41.7707C-0.335593 41.7771 -0.339466 41.7835 -0.343332 41.7899C-0.404735 41.8886 -0.471791 41.9991 -0.569275 42.1398C-0.656095 42.2659 -0.883205 42.2295 -1.0806 42.0601C-1.27786 41.8905 -1.36849 41.6501 -1.27932 41.5209C-1.18646 41.3869 -1.11804 41.2769 -1.05646 41.1777C-1.0526 41.1713 -1.04874 41.1649 -1.04487 41.1585C-0.980601 41.0551 -0.914305 40.9532 -0.839795 40.8604C-0.81443 40.829 -0.787151 40.7976 -0.760948 40.7688C-0.717938 40.7125 -0.673204 40.6433 -0.619525 40.5591C-0.60884 40.5423 -0.596882 40.5249 -0.586044 40.5075C-0.516455 40.396 -0.433819 40.2654 -0.328188 40.1271C-0.0895578 39.8112 0.271948 39.4537 0.867921 39.1756C1.02884 39.0987 1.1738 39.0321 1.32198 38.9624C1.99707 38.6477 2.59487 38.3856 3.34712 38.2697C3.45076 38.2535 3.55261 38.248 3.66358 38.2401C3.99362 38.2162 4.38317 38.1913 4.99429 37.9639C5.44862 37.7954 6.01389 37.52 6.74959 37.0595C7.33207 36.6958 8.024 36.2136 8.84283 35.5827C9.15622 35.3413 9.52763 35.1364 9.9265 34.9171C10.0809 34.8319 10.2308 34.7494 10.388 34.6598C10.9644 34.331 11.5701 33.9431 12.1727 33.342C12.8997 32.6145 13.3129 32.016 13.649 31.5226C13.6605 31.5053 13.6721 31.488 13.6837 31.4706C13.6983 31.4494 13.7128 31.4282 13.7272 31.4074C14.2289 30.6777 15.2464 29.935 16.2846 29.8625C16.9364 29.8168 17.4241 29.6944 18.0317 29.5266C18.3315 29.4433 18.5877 29.2583 18.9818 28.974C19.0924 28.8941 19.2149 28.8068 19.3505 28.7118C19.9608 28.2841 20.8383 27.7271 22.3144 27.0918C22.6991 26.9263 23.0229 26.7426 23.3245 26.5711C23.4182 26.5178 23.5102 26.4657 23.6012 26.4155C23.9798 26.2064 24.3433 26.032 24.7621 25.9871C25.1057 25.9507 25.8232 25.8021 26.5337 25.5091C27.25 25.2137 27.9296 24.7838 28.236 24.2087C28.2677 24.149 28.2999 24.0894 28.3319 24.0297C28.6069 23.5154 28.8858 22.9902 28.9737 22.3716C28.945 21.1604 29.3431 20.2489 29.9417 19.5281L29.6907 19.7141C30.8096 18.271 32.7247 17.4324 34.0014 16.6032C34.0273 16.5864 34.0532 16.5696 34.079 16.5529C36.3488 15.0778 37.9156 13.8851 38.4479 13.4796C38.4728 13.4606 38.4955 13.4433 38.5159 13.4278C38.5341 13.4139 38.5504 13.401 38.5649 13.3901C38.7836 13.2252 38.9582 13.0546 39.1411 12.8762C39.1511 12.8664 39.161 12.8567 39.171 12.8469C39.3639 12.6589 39.5698 12.4627 39.8401 12.2684C40.8429 11.5481 41.6349 10.9216 42.3189 10.3734C42.4453 10.2721 42.5685 10.1743 42.688 10.0783C42.6884 10.078 42.6888 10.0778 42.6891 10.0775C43.2148 9.65556 43.6829 9.28181 44.1454 8.954C44.9905 8.35513 45.5291 7.90588 45.939 7.54165C46.0675 7.42749 46.1843 7.32111 46.2952 7.22004C46.5354 7.00132 46.7451 6.81072 46.9759 6.63564C47.4089 6.30711 47.7881 5.96855 48.1603 5.6384C48.1935 5.60895 48.227 5.57998 48.2602 5.55065C48.6646 5.19296 49.0707 4.84189 49.5351 4.52776C49.6434 4.4545 49.8516 4.57045 49.9993 4.78577C50.1468 5.00099 50.1788 5.23445 50.071 5.30737C49.6214 5.61145 49.2266 5.95202 48.8235 6.30869C48.7903 6.33808 48.7572 6.36807 48.7238 6.3977C48.354 6.72595 47.9683 7.06854 47.5288 7.40202C47.307 7.57026 47.1095 7.74964 46.875 7.96342C46.7628 8.06565 46.6437 8.1748 46.5087 8.29479C46.0941 8.66341 45.5504 9.1178 44.6998 9.7205C44.2442 10.0435 43.7833 10.4106 43.2593 10.8312C43.1394 10.9275 43.016 11.0268 42.8885 11.129C42.2048 11.677 41.4106 12.3049 40.4051 13.0272C40.1504 13.2102 39.9551 13.3956 39.7637 13.5823C39.7529 13.5927 39.742 13.6031 39.7312 13.6135C39.5504 13.7899 39.367 13.9701 39.1366 14.1438C39.1059 14.167 39.0663 14.1963 39.0192 14.2322C38.4874 14.6373 36.9186 15.8323 34.6451 17.3094C34.6379 17.3138 34.6308 17.3183 34.6236 17.3228C33.099 18.3141 32.2454 18.8779 31.7782 19.5338C31.4104 20.0512 31.0834 20.3648 30.8025 20.6117C30.749 20.6587 30.6984 20.7032 30.6498 20.7452C30.6176 20.773 30.5865 20.7998 30.5563 20.8261L30.7541 20.6795C30.5898 20.8105 30.4541 20.9261 30.3399 21.0739C29.9322 21.6014 29.7398 22.1296 29.6266 22.9433C29.5269 23.6356 29.22 24.2135 28.9463 24.7207C28.9459 24.7215 28.9455 24.7222 28.945 24.723C28.9128 24.783 28.8808 24.842 28.8499 24.9001ZM-1.61932 44.1442C-1.72541 44.2511 -1.96816 44.1985 -2.16373 44.0261C-2.35855 43.8525 -2.4296 43.6214 -2.31988 43.5103C-2.05761 43.245 -1.79321 42.9871 -1.52427 42.7334C-1.41257 42.6282 -1.16943 42.6902 -0.983984 42.8734C-0.798431 43.0568 -0.737922 43.2893 -0.845933 43.391C-1.10763 43.6372 -1.36437 43.887 -1.61932 44.1442ZM31.9298 28.4933C31.8559 28.6077 31.6605 28.5405 31.4936 28.3448C31.327 28.1491 31.2505 27.8993 31.3237 27.7855C31.3625 27.7253 31.4237 27.6225 31.5053 27.4842C31.8336 26.9241 32.5143 25.7712 33.4403 24.4867L33.4184 24.5028C34.0943 23.4721 34.9283 22.3627 35.9164 21.3808C36.1071 21.1913 36.275 21.0199 36.4362 20.8557C37.1274 20.1528 37.3413 19.144 38.8513 18.0438C45.2108 13.4161 52.2892 9.88904 58.4825 5.01576C60.2762 3.60491 62.1941 2.39475 64.1643 1.25651C65.8043 0.299267 69.0723 -0.975716 69.8133 -1.31693C69.9294 -1.37156 70.1241 -1.2292 70.2478 -0.999434C70.3715 -0.76976 70.378 -0.540109 70.2626 -0.485795C69.5303 -0.148799 66.2868 1.11316 64.6602 2.06232C62.7025 3.19302 60.7964 4.39475 59.014 5.79757C52.8293 10.6656 46.4243 15.1196 40.0981 19.7226C38.6114 20.8057 37.7293 20.8798 37.0418 21.5791C36.8801 21.7437 36.7124 21.9159 36.5203 22.1069C35.5221 23.0991 34.6841 24.223 34.0091 25.2616C34.0067 25.2643 33.9972 25.2698 33.9946 25.2724C33.1028 26.5142 32.4475 27.6224 32.1194 28.1794C32.0349 28.3222 31.9709 28.4295 31.9298 28.4933ZM26.7798 31.4585C25.6324 32.2996 23.8735 33.2956 22.3357 34.1621C21.5871 34.584 20.8888 34.9763 20.3415 35.3063C19.4934 35.8176 18.8475 35.9685 18.209 36.1171C18.2022 36.1188 18.1953 36.1205 18.1885 36.1222C17.5474 36.2728 16.9115 36.4242 16.051 36.9482C15.1851 37.4756 14.0982 38.3777 13.0169 39.2937C13.0159 39.2943 13.015 39.295 13.0141 39.2956C11.9465 40.1979 11.1499 41.4995 10.3173 42.0727C10.3045 42.0815 10.2917 42.0901 10.2789 42.0986C7.31509 44.0507 5.2722 44.9678 4.09339 45.3554C2.00012 46.035 1.24195 48.436 -0.828348 49.3695C-1.16029 49.3961 -1.51436 48.6685 -1.09769 48.4602C-1.08399 48.4517 -1.07027 48.4433 -1.05654 48.4348C-0.926504 48.3529 -0.815712 48.2798 -0.67809 48.1594C-0.497466 47.9725 -0.375768 47.8204 -0.263733 47.6816C-0.0114263 47.2929 2.34676 44.9469 3.5389 44.6108C4.66712 44.238 6.01318 42.4102 9.07415 40.3893C9.08434 40.3826 9.09462 40.3759 9.10499 40.3692C9.961 39.8159 11.3824 39.4405 12.4609 38.5291C12.4639 38.5266 12.4669 38.5241 12.47 38.5216C13.5488 37.6084 14.6481 36.6959 15.5302 36.1586C16.4233 35.6147 17.0889 35.4569 17.7397 35.3035C17.7461 35.3021 17.7525 35.3007 17.7589 35.2993C18.3912 35.1524 19.0082 35.0076 19.8251 34.5151C20.3848 34.1777 21.0902 33.7797 21.8436 33.3551C23.3744 32.4927 25.1079 31.513 26.2435 30.6804C26.3461 30.6053 26.5496 30.7187 26.6979 30.9336C26.8459 31.1484 26.8825 31.3832 26.7798 31.4585ZM29.9923 36.394C27.1983 39.4868 23.6637 41.4106 19.8203 42.6121C18.9562 43.1378 17.7417 43.8519 16.5538 44.5636C16.54 44.5715 16.5262 44.5794 16.5124 44.5872C15.3574 45.2792 14.2377 45.9669 13.4543 46.4805C13.4363 46.4923 13.4186 46.5039 13.4011 46.5155C10.5913 48.3609 9.0788 49.4658 8.0491 49.7164C7.08935 49.9559 6.92381 50.1316 6.67892 50.375C6.672 50.3815 6.6651 50.3881 6.65821 50.3946C6.65833 50.3956 6.65845 50.3966 6.65857 50.3976C6.65899 50.4146 6.65705 50.4267 6.65565 50.4324C6.6528 50.4443 6.64855 50.452 6.64697 50.4548C6.64332 50.4615 6.63915 50.4661 6.63775 50.4678C6.63204 50.4747 6.62483 50.4819 6.61992 50.4863C6.575 50.526 6.42023 50.6469 6.29006 50.7305C6.15425 50.8186 6.04342 50.8647 5.9224 50.9151C5.91017 50.9201 5.89795 50.925 5.88575 50.93C5.77838 50.9736 5.65862 51.0251 5.50379 51.1126C5.4089 51.1665 5.17923 51.0679 4.98974 50.8917C4.80048 50.7156 4.72606 50.5257 4.82455 50.4676C4.9919 50.371 5.12269 50.313 5.23446 50.2653C5.24701 50.26 5.25959 50.2547 5.27218 50.2494C5.39261 50.1965 5.49083 50.1538 5.61679 50.0705C5.77843 49.9394 5.88826 49.8277 5.98857 49.7264C6.25227 49.4642 6.45502 49.2522 7.48312 48.9838C8.48615 48.7266 9.99695 47.6239 12.8517 45.7468C12.8698 45.7349 12.888 45.7229 12.9065 45.7108C13.699 45.1908 14.8266 44.4977 15.9849 43.8034C15.9989 43.795 16.0128 43.7865 16.0268 43.778C17.2203 43.0626 18.4365 42.3489 19.3002 41.8234C22.6699 39.7741 25.6987 37.264 29.4556 35.6162C30.0578 35.1755 30.6191 34.7869 31.1387 34.426C32.67 33.3621 33.8472 32.5306 34.6576 31.2802C34.8356 31.0054 35.4277 30.4714 36.2911 29.7048C36.4525 29.5616 36.6233 29.4104 36.8021 29.2515C36.8367 29.2161 36.9676 29.1413 37.0005 29.1044C37.0959 29.0106 37.1941 28.9142 37.2949 28.8152C37.9707 28.151 38.7713 27.3676 39.6688 26.4719C39.8566 26.2845 40.0225 26.1145 40.1804 25.9528C40.8609 25.2578 41.3949 24.7093 42.8786 23.6282C44.7021 22.2954 47.8867 20.2504 49.6303 19.2306C50.5048 18.7162 51.0159 18.458 51.3854 18.2823C51.488 18.2336 51.5793 18.1922 51.6626 18.1539C51.8804 18.0537 52.0487 17.9762 52.2588 17.8562C53.7664 16.998 54.6967 16.2209 56.2084 14.9228C56.3031 14.8416 56.5042 14.9474 56.6573 15.1585C56.8104 15.3696 56.8582 15.6066 56.7641 15.6876C55.2562 16.9833 54.3152 17.7697 52.7918 18.6364C52.5731 18.7612 52.3933 18.8433 52.1722 18.9449C52.0903 18.9825 52.0027 19.0227 51.9056 19.0687C51.5433 19.2408 51.039 19.4951 50.1715 20.0051C48.4362 21.0194 45.2648 23.0557 43.451 24.3813C41.9851 25.4494 41.4623 25.9851 40.7855 26.6765C40.6277 26.8383 40.4617 27.0092 40.2727 27.1979C39.3758 28.0933 38.575 28.8779 37.9003 29.5412C37.7914 29.6482 37.6857 29.7522 37.5833 29.853C37.5444 29.8966 37.3899 29.9849 37.349 30.0266C37.1791 30.1776 37.0168 30.3214 36.8631 30.4577C35.9771 31.2435 35.4215 31.7483 35.2668 31.9855C34.4242 33.2831 33.1916 34.1528 31.6425 35.2284C31.1275 35.5858 30.5762 35.9668 29.9923 36.394ZM62.2856 11.2102C62.1881 11.2874 61.9899 11.1748 61.8432 10.9591C61.6965 10.7434 61.6567 10.5056 61.7547 10.428C62.2722 10.0182 62.6404 9.72007 62.9299 9.48627C63.4651 9.05437 63.7242 8.84685 64.1495 8.595C65.2466 7.94599 66.3076 7.32227 67.2652 6.76868C68.8572 5.84797 70.167 5.12083 70.8824 4.77692C70.9946 4.72301 71.1881 4.86483 71.3143 5.09328C71.4402 5.32156 71.4517 5.54969 71.3402 5.60337C70.6332 5.94304 69.3392 6.6607 67.7605 7.5735C66.8061 8.12507 65.7471 8.74891 64.648 9.39899C64.2373 9.64211 63.9933 9.83663 63.4726 10.2573C63.1847 10.49 62.8144 10.7911 62.2856 11.2102Z" fill="black"/>
</svg>
