<svg width="139" height="76" viewBox="0 0 139 76" fill="none" xmlns="http://www.w3.org/2000/svg">
<path d="M131.266 -2.82823C130.193 -2.24196 129.016 -1.24044 127.883 -0.776071C127.868 -0.769717 127.852 -0.763355 127.837 -0.75698C127.377 -0.568878 126.893 -0.402473 126.295 -0.195658C126.218 -0.168586 126.145 -0.144843 126.067 -0.11805C125.366 0.123139 124.515 0.417247 123.358 0.86085C119.51 2.3263 116.872 4.26749 116.061 4.86814C114.423 6.07744 112.541 7.12692 109.963 8.55664C109.727 8.68771 109.473 8.82717 109.235 8.95926C109.038 9.06863 108.771 8.97539 108.64 8.74925C108.51 8.52299 108.566 8.24989 108.763 8.14048C108.996 8.01082 109.242 7.87449 109.474 7.74603C109.475 7.74545 109.476 7.74486 109.477 7.74428C112.071 6.3059 113.91 5.27965 115.509 4.09969C116.335 3.48721 119.038 1.50018 122.977 -0.000349408C124.137 -0.443017 125.01 -0.749111 125.705 -0.986127C125.779 -1.0108 125.857 -1.03844 125.931 -1.06373C125.933 -1.0643 125.934 -1.06486 125.936 -1.06543C126.53 -1.26977 127 -1.43214 127.435 -1.60935C127.444 -1.61329 127.453 -1.61722 127.462 -1.62115C128.611 -2.09254 129.752 -3.07707 130.792 -3.64558C130.993 -3.75548 131.259 -3.6598 131.39 -3.43426C131.521 -3.20873 131.467 -2.93867 131.266 -2.82823ZM59.4416 40.2533C58.5555 41.1293 57.1306 41.8611 55.8209 42.3987C54.4941 42.9444 53.2439 43.3076 52.6242 43.4501C52.0234 43.5867 51.4203 43.8537 50.7196 44.1977C50.5591 44.2766 50.3931 44.3597 50.219 44.4469C49.646 44.7338 49.0107 45.0517 48.2952 45.3571C45.6527 46.4869 44.0089 47.3728 42.8612 48.0292C42.6273 48.163 42.4033 48.2936 42.1962 48.4144C42.1958 48.4146 42.1954 48.4148 42.1951 48.415C41.4122 48.8715 40.8348 49.2082 40.2471 49.4076C39.1832 49.7722 38.3177 50.0533 37.2125 50.2817C35.6736 50.6047 33.8288 51.6816 32.784 52.6171C32.7262 52.6686 32.6647 52.7235 32.6037 52.7777C31.8198 53.4721 30.8887 54.3081 29.3629 55.3938C28.0956 56.2956 26.9314 56.9267 25.8511 57.4723C25.5468 57.6257 25.2579 57.7667 24.9837 57.9014C24.9668 57.9096 24.95 57.9179 24.9333 57.9261C24.2264 58.2756 23.6136 58.5792 23.0722 58.9066C19.5135 61.0541 17.3855 62.0726 15.9508 62.5947C14.8819 62.9773 14.1571 63.0998 13.6849 63.1589C13.5318 63.1826 13.3974 63.2023 13.2755 63.2273C12.2049 63.4407 11.3062 63.7779 10.2093 64.1943C9.97709 64.2802 9.71583 64.3808 9.4524 64.4785C8.58655 64.7964 8.00262 65.1664 7.56162 65.4989C7.3701 65.6435 7.22608 65.7685 7.06477 65.902C7.06198 65.9045 7.05919 65.907 7.0564 65.9095C7.03483 65.9276 7.01328 65.9451 6.99216 65.9628C6.97622 65.9761 6.96086 65.9903 6.94498 66.0035C6.94041 66.0116 6.93573 66.0179 6.93244 66.0229C6.92984 66.0268 6.92775 66.0298 6.92641 66.0317C6.92626 66.0323 6.9261 66.0328 6.92595 66.0334C6.90169 66.0683 6.87676 66.091 6.87167 66.0957C6.8628 66.1039 6.85435 66.1101 6.85015 66.1135C6.82795 66.1313 6.7979 66.1516 6.77784 66.1647C6.7263 66.1983 6.63575 66.2552 6.49844 66.3394C6.38183 66.4224 6.26637 66.5158 6.13199 66.6273C6.12351 66.6344 6.11504 66.6415 6.10659 66.6486C5.97281 66.7589 5.83198 66.8781 5.62463 67.0345C5.44151 67.1735 5.17518 67.1115 5.02127 66.9007C4.86767 66.6897 4.88234 66.4118 5.06239 66.2745C5.25108 66.1311 5.39528 66.012 5.52307 65.9051C5.53122 65.8982 5.53939 65.8913 5.54757 65.8843C5.68317 65.7716 5.8149 65.6632 5.96746 65.5563C6.0173 65.5213 6.06591 65.4883 6.11388 65.4571C6.19658 65.3958 6.28829 65.3197 6.39972 65.2261C6.42209 65.2073 6.44556 65.1884 6.46931 65.1684C6.62464 65.0384 6.79724 64.8918 6.99925 64.7381C7.48445 64.3713 8.13655 63.9611 9.08024 63.6144C9.33626 63.5186 9.57901 63.4267 9.81108 63.3399C10.922 62.9159 11.8673 62.5644 13.0217 62.3279C13.1841 62.2932 13.3347 62.2736 13.4972 62.2511C13.974 62.1875 14.5858 62.0876 15.5838 61.7284C16.95 61.2315 19.0347 60.2387 22.5739 58.1028C23.1334 57.7646 23.7687 57.4489 24.4726 57.1008C24.5048 57.085 24.5372 57.0691 24.5696 57.0531C24.8388 56.9209 25.1172 56.7831 25.4033 56.6389C26.4686 56.1009 27.5927 55.4913 28.8207 54.618C30.3079 53.5591 31.2211 52.7422 31.9971 52.0532C32.0238 52.0292 32.0505 52.0052 32.0772 51.9811C32.1106 51.9515 32.1437 51.9221 32.1767 51.893C33.2966 50.8923 35.2489 49.7424 36.9542 49.3829C38.0025 49.1692 38.8421 48.8949 39.8947 48.5353C40.4071 48.3614 40.9005 48.0734 41.6675 47.6267C41.882 47.5018 42.124 47.362 42.3815 47.2147C43.5496 46.5467 45.2191 45.6464 47.891 44.504C48.5842 44.208 49.192 43.904 49.7618 43.6187C49.9395 43.5297 50.1115 43.4441 50.2805 43.3611C50.9847 43.0153 51.6548 42.7123 52.3498 42.5542C52.9248 42.4222 54.136 42.0724 55.427 41.5414C56.7188 41.0112 58.0299 40.3238 58.8098 39.5533C58.8909 39.4732 58.9731 39.3929 59.055 39.3125C59.7599 38.6204 60.4842 37.9118 60.949 37.1355C62.6448 32.9228 68.7454 30.8623 72.504 29.0202C72.5534 28.996 72.6027 28.9719 72.6519 28.9478C76.9866 26.8233 80.0695 25.1206 81.1063 24.5476C81.1549 24.5208 81.1985 24.4966 81.2391 24.4742C81.275 24.4544 81.3072 24.4361 81.3359 24.4203C81.7656 24.1842 82.1295 23.9485 82.5095 23.7022C82.5302 23.6887 82.5509 23.6753 82.5716 23.6618C82.9741 23.4012 83.39 23.1343 83.9143 22.8531C85.859 21.8103 87.4186 20.9139 88.7496 20.1385C89.0008 19.9924 89.2443 19.8512 89.4805 19.7133C89.4812 19.7129 89.4819 19.7126 89.4826 19.7122C90.5163 19.1085 91.4274 18.5754 92.3154 18.092C93.9056 17.2263 94.9938 16.5655 95.7952 16.0556C96.0547 15.8912 96.2913 15.7388 96.5133 15.5953C96.9939 15.2847 97.4046 15.0182 97.8442 14.7636C98.6962 14.271 99.4202 13.8018 100.163 13.3244C100.229 13.2817 100.296 13.2395 100.362 13.1971C100.858 12.8785 101.343 12.5675 101.837 12.269C102.16 12.0746 102.486 11.8852 102.819 11.7021C103.02 11.5915 103.288 11.6872 103.417 11.9139C103.546 12.1405 103.49 12.413 103.289 12.5235C102.951 12.7091 102.62 12.9015 102.291 13.1C101.822 13.3844 101.357 13.6822 100.875 13.9918C100.809 14.0344 100.742 14.0778 100.675 14.1209C99.9305 14.5995 99.1964 15.0738 98.3282 15.5758C97.9019 15.8226 97.5161 16.073 97.0451 16.3775C96.8209 16.5225 96.5782 16.6793 96.3049 16.8524C95.4879 17.372 94.3898 18.0397 92.7822 18.9149C91.9054 19.3923 91.0044 19.9186 89.972 20.5215C89.7344 20.6602 89.4891 20.8034 89.235 20.9513C87.8997 21.7292 86.3323 22.6298 84.3769 23.6783C83.8808 23.9444 83.487 24.1966 83.0863 24.4561C83.0639 24.4705 83.0414 24.4849 83.0189 24.4993C82.6424 24.7434 82.2588 24.9927 81.8048 25.2421C81.7444 25.2753 81.6657 25.3181 81.5744 25.3685C80.5363 25.9422 77.441 27.6525 73.0906 29.7847C73.077 29.7912 73.0635 29.7977 73.0499 29.8042C70.1304 31.2354 68.4846 32.0423 67.3847 32.9054C66.5164 33.5868 65.823 34.0171 65.2472 34.3555C65.1373 34.4201 65.0334 34.4812 64.934 34.5389C64.5046 34.7883 64.1653 34.9854 63.8522 35.2301C62.9057 35.97 62.3116 36.6625 61.6977 37.6859C61.1785 38.5527 60.3816 39.3319 59.6873 40.0122C59.6863 40.0133 59.6852 40.0143 59.6842 40.0153C59.6018 40.096 59.5205 40.1753 59.4416 40.2533ZM3.16855 69.1336C2.97172 69.2313 2.7225 69.1178 2.6016 68.8868C2.48087 68.6555 2.53216 68.3951 2.72528 68.2992C3.16766 68.0809 3.64431 67.8372 4.10116 67.6013C4.29895 67.4989 4.56397 67.5983 4.68892 67.8271C4.81782 68.054 4.75663 68.3252 4.5577 68.4285C4.09752 68.6663 3.61667 68.9122 3.16855 69.1336ZM62.5314 43.9264C62.3594 44.0801 62.0841 44.0417 61.9171 43.8414C61.7505 43.6412 61.7549 43.3546 61.9267 43.201C62.0175 43.1198 62.1647 42.9822 62.3629 42.7967C63.788 41.462 67.8615 37.6502 72.6923 34.561C73.0985 34.3011 73.4637 34.064 73.8096 33.839C75.2881 32.8772 76.208 31.6138 79.1807 30.0311C87.5385 25.5806 96.1412 21.5548 104.491 17.1227C108.635 14.9216 112.669 12.6474 116.617 10.1461C120.063 7.96192 123.585 5.95137 127.127 3.94474C130.077 2.28877 135.661 -0.461184 136.943 -1.18171C137.144 -1.29339 137.415 -1.2012 137.547 -0.976202C137.679 -0.751254 137.623 -0.478915 137.422 -0.367203C136.151 0.347178 130.57 3.09646 127.627 4.74848C124.085 6.75552 120.57 8.76118 117.128 10.943C113.163 13.455 109.169 15.8504 105.086 18.2092C96.8879 22.944 88.5194 27.4274 80.162 31.8778C77.2182 33.4451 75.7992 33.6727 74.3264 34.6308C73.9797 34.8563 73.6133 35.095 73.2027 35.3576C68.44 38.4033 64.4273 42.1559 62.9855 43.5057C62.781 43.697 62.6275 43.8405 62.5314 43.9264ZM52.9473 48.6954C50.7204 49.991 47.4558 51.6284 44.6054 53.0613C43.2109 53.7625 41.9181 54.4123 40.894 54.9494C39.3058 55.7823 38.2145 56.1243 37.1165 56.4723C37.1048 56.4761 37.0931 56.4799 37.0813 56.4837C35.9896 56.8285 34.8985 57.1773 33.2943 58.0238C31.6499 58.8922 29.5366 60.2381 27.3545 61.6331C27.3528 61.6341 27.3511 61.6351 27.3494 61.636C27.2644 61.6905 27.1801 61.7456 27.0965 61.801C25.0381 63.1598 23.1836 64.8736 21.6072 65.7265C15.8928 68.8188 12.0956 70.2878 10.0857 70.8581C6.569 71.836 3.53472 74.8779 -0.235594 74.9074C-0.686808 74.795 -0.292411 73.9105 0.422197 73.8642C0.447822 73.8608 0.473411 73.8575 0.498946 73.8541C0.740537 73.8209 0.952293 73.7862 1.23734 73.7089C1.64267 73.5751 1.93519 73.4485 2.19904 73.3308C2.88708 73.1171 7.79098 70.5663 9.76236 69.9779C11.6807 69.4305 14.8247 67.0198 20.5929 63.8978C22.1553 63.0524 24.5131 62.2764 26.6322 60.9694C26.7025 60.926 26.7726 60.8818 26.8427 60.8368C26.8485 60.8331 26.8543 60.8295 26.8601 60.8258C29.0271 59.4404 31.1625 58.0801 32.8347 57.1969C34.4989 56.3188 35.6376 55.9564 36.7467 55.6054C36.7576 55.602 36.7685 55.5987 36.7794 55.5954C37.8622 55.2534 38.9098 54.9234 40.4374 54.1223C41.4845 53.5731 42.7912 52.9147 44.1958 52.2085C47.0343 50.7817 50.2544 49.1683 52.4629 47.8833C52.6605 47.7684 52.9298 47.857 53.0636 48.0813C53.1971 48.3055 53.1447 48.5803 52.9473 48.6954ZM55.7205 53.8907C49.888 58.265 43.3872 61.4853 36.6445 63.9455C34.9892 64.8195 32.7285 65.9873 30.4263 67.187C30.4008 67.1999 30.3753 67.2128 30.3498 67.2257C30.2916 67.256 30.2334 67.2863 30.1755 67.3164C27.9691 68.4662 25.7981 69.6087 24.2401 70.4516C18.5551 73.5274 15.0073 75.4054 12.9856 75.9825C11.0882 76.5302 10.6262 76.7915 9.92898 77.1833C9.91012 77.1936 9.89217 77.2033 9.87177 77.2144C9.87085 77.2158 9.86994 77.2172 9.86902 77.2186C9.85027 77.2432 9.833 77.2609 9.82385 77.2696C9.80519 77.2872 9.7887 77.2991 9.78254 77.3036C9.76829 77.314 9.75561 77.3213 9.75116 77.324C9.73296 77.3351 9.71173 77.3468 9.69788 77.3541C9.56864 77.4217 9.1649 77.6159 8.82681 77.7586C8.49043 77.8993 8.21845 77.9894 7.94773 78.0714C7.919 78.0803 7.89034 78.0891 7.86174 78.0979C7.60749 78.1765 7.33725 78.258 6.94242 78.3951C6.70785 78.4752 6.42955 78.348 6.34225 78.1025C6.25276 77.8583 6.37658 77.5939 6.6079 77.5146C7.0218 77.3701 7.29664 77.2894 7.55282 77.2095C7.57974 77.2015 7.60673 77.1935 7.63378 77.1855C7.88864 77.1087 8.12851 77.0273 8.4222 76.9053C8.85764 76.6969 9.14517 76.5369 9.43209 76.3763C10.1478 75.9747 10.6862 75.6713 12.6656 75.1017C14.5883 74.5519 18.0431 72.7311 23.7723 69.6307C25.3344 68.7856 27.5089 67.641 29.7149 66.4914C29.7734 66.461 29.8321 66.4304 29.891 66.3998C29.9169 66.3862 29.943 66.3726 29.969 66.359C32.2741 65.1577 34.5333 63.9921 36.1855 63.1197C42.5551 59.7591 48.5349 55.9495 55.2356 53.0789C56.3805 52.4123 57.4578 51.8085 58.4381 51.2592C61.3465 49.6302 63.567 48.3874 65.4359 46.7177C65.8441 46.3525 67.0222 45.5903 68.736 44.5076C69.238 44.1904 69.7898 43.8441 70.3858 43.4694C71.8474 42.5505 73.5799 41.462 75.5207 40.2206C75.926 39.9613 76.2914 39.7241 76.6373 39.4991C78.1165 38.5369 79.2831 37.7771 82.2551 36.1948C85.9097 34.2492 92.1195 31.1444 95.4675 29.5288C97.123 28.7314 98.1161 28.2862 98.7865 28.0005C98.9746 27.9202 99.1434 27.8497 99.3004 27.7832C99.7084 27.6105 100.023 27.477 100.423 27.2848C103.138 25.9783 104.973 24.8766 107.769 23.1167C107.951 23.0025 108.136 22.8864 108.323 22.768C108.52 22.644 108.792 22.7233 108.932 22.9435C109.072 23.1639 109.029 23.4425 108.832 23.5665C108.626 23.6965 108.424 23.8239 108.225 23.949C105.45 25.6947 103.592 26.8082 100.857 28.1243C100.439 28.3251 100.102 28.4677 99.6862 28.6436C99.5304 28.7097 99.3709 28.7764 99.1915 28.8531C98.5316 29.1344 97.5495 29.5744 95.9019 30.368C92.5595 31.981 86.3588 35.0817 82.7154 37.0213C79.7724 38.5882 78.6277 39.3323 77.1542 40.2909C76.8078 40.5162 76.4403 40.7554 76.0317 41.017C74.0884 42.2599 72.3514 43.3518 70.8891 44.2711C70.2939 44.6454 69.7436 44.9912 69.2436 45.307C67.4956 46.4114 66.3897 47.1306 66.0404 47.4432C64.106 49.1713 61.7888 50.4678 58.8538 52.1113C57.8837 52.6547 56.8287 53.2453 55.7205 53.8907ZM120.005 16.5787C119.801 16.7069 119.541 16.6208 119.399 16.4019C119.26 16.1809 119.295 15.9072 119.493 15.7818C120.535 15.1235 121.266 14.6496 121.835 14.28C122.906 13.5864 123.415 13.2543 124.216 12.8137C126.286 11.6752 128.275 10.5622 130.078 9.54114C133.048 7.86089 135.481 6.442 136.777 5.73065C136.978 5.62058 137.252 5.71151 137.383 5.93721C137.514 6.16256 137.452 6.43716 137.251 6.54765C135.962 7.25531 133.54 8.66737 130.578 10.3437C128.768 11.3689 126.775 12.486 124.688 13.6337C123.91 14.0613 123.431 14.3731 122.38 15.0541C121.815 15.4214 121.07 15.9048 120.005 16.5787Z" fill="black"/>
</svg>
