<svg width="68" height="42" viewBox="0 0 68 42" fill="none" xmlns="http://www.w3.org/2000/svg">
<path d="M62.7386 -4.39603C62.1539 -4.16334 61.5591 -3.57972 60.9318 -3.46319C60.923 -3.46154 60.9142 -3.4599 60.9053 -3.45826C60.6472 -3.40981 60.3785 -3.38963 60.0388 -3.358C59.9959 -3.35416 59.9518 -3.35052 59.907 -3.34646C59.5087 -3.31047 59.0225 -3.26304 58.3848 -3.16313C56.2252 -2.819 54.9239 -1.72653 54.5191 -1.38646C53.7199 -0.710479 52.723 -0.220557 51.379 0.44316C51.2556 0.504113 51.129 0.565465 51.0002 0.629377C50.8958 0.681157 50.717 0.534333 50.6001 0.301002C50.4831 0.0675383 50.4726 -0.163622 50.5771 -0.215459C50.7034 -0.278084 50.8268 -0.339206 50.9475 -0.398811C50.948 -0.39908 50.9486 -0.399349 50.9491 -0.399618C52.3035 -1.06863 53.277 -1.54732 54.0595 -2.20843C54.4726 -2.55567 55.8086 -3.67516 58.0216 -4.02779C58.6668 -4.12904 59.1584 -4.17834 59.5595 -4.21473C59.6035 -4.21872 59.6465 -4.22229 59.6882 -4.22604C59.6892 -4.22609 59.6902 -4.22614 59.6912 -4.22619C60.0335 -4.25824 60.2891 -4.27619 60.537 -4.32293C60.5421 -4.32411 60.5473 -4.32528 60.5524 -4.32645C61.1872 -4.4445 61.7683 -5.02476 62.3351 -5.25036C62.4426 -5.29293 62.6204 -5.13609 62.7317 -4.90014C62.843 -4.66431 62.8458 -4.43883 62.7386 -4.39603ZM26.1191 17.6051C25.7702 18.2073 25.0182 18.6073 24.3177 18.859C23.5937 19.1222 22.8578 19.2711 22.4718 19.3272C22.4123 19.3347 22.354 19.345 22.2968 19.3581L22.4171 19.2791C22.1544 19.3123 21.9052 19.4158 21.6206 19.5556C21.5426 19.5939 21.462 19.635 21.378 19.6776C21.1006 19.8183 20.7857 19.9765 20.4073 20.1154C19.0115 20.626 18.1193 21.1773 17.5275 21.6005C17.4051 21.6877 17.2916 21.7723 17.1865 21.8511C17.1863 21.8512 17.1862 21.8513 17.186 21.8515C16.7885 22.1499 16.4941 22.3792 16.1544 22.49C15.5465 22.6907 15.0456 22.853 14.3635 22.962C13.9832 23.0241 13.6124 23.1888 13.2773 23.4172C12.7812 23.7547 12.3874 24.2135 12.1767 24.6424C12.157 24.6821 12.137 24.7235 12.1169 24.7646C11.8625 25.2869 11.5619 25.9247 10.995 26.7098C10.5231 27.363 10.0105 27.8032 9.53199 28.1643C9.3958 28.2669 9.25848 28.366 9.1339 28.4556C8.81136 28.6889 8.52667 28.8935 8.29034 29.1321C6.84526 30.5934 5.83869 31.2423 5.11257 31.533C4.55766 31.753 4.14325 31.7743 3.85399 31.781C3.76555 31.7839 3.68672 31.7861 3.6175 31.7941C2.99883 31.8672 2.53742 32.0564 1.99051 32.275C1.86798 32.3245 1.73966 32.3764 1.6035 32.4299C1.15803 32.6006 0.910519 32.8456 0.751984 33.067C0.682891 33.1636 0.628118 33.2569 0.576558 33.3458C0.575696 33.3476 0.574829 33.3493 0.573963 33.3511C0.566771 33.3635 0.559351 33.3755 0.552221 33.3877C0.546844 33.3969 0.542115 33.4068 0.536687 33.416C0.536701 33.4221 0.535961 33.4267 0.535677 33.4305C0.53545 33.4335 0.535189 33.4357 0.535022 33.4372C0.535124 33.4376 0.535219 33.438 0.535316 33.4384C0.532419 33.4646 0.524458 33.4806 0.522851 33.4839C0.520072 33.4897 0.516828 33.494 0.515325 33.4964C0.507362 33.5088 0.495064 33.5223 0.486666 33.5311C0.465066 33.5537 0.426328 33.5914 0.364835 33.6487C0.317495 33.7063 0.278744 33.7692 0.232691 33.8464C0.229811 33.8513 0.226929 33.8563 0.224044 33.8612C0.178614 33.937 0.124724 34.0253 0.0504359 34.1298C-0.017154 34.2248 -0.216834 34.1492 -0.394826 33.96C-0.572823 33.7708 -0.661603 33.5399 -0.594158 33.4448C-0.524239 33.3465 -0.474063 33.2634 -0.428611 33.1877C-0.425804 33.1828 -0.422998 33.1779 -0.420193 33.173C-0.372527 33.0938 -0.329304 33.0208 -0.269066 32.9488C-0.249251 32.9251 -0.227972 32.9017 -0.207583 32.8805C-0.174802 32.8377 -0.141979 32.7839 -0.103836 32.7186C-0.096183 32.7056 -0.087905 32.6925 -0.0798884 32.6787C-0.0284337 32.5899 0.0309874 32.4869 0.106076 32.3819C0.280718 32.137 0.555033 31.8686 1.04021 31.6825C1.16963 31.6318 1.29306 31.5819 1.41287 31.5336C1.96241 31.3131 2.45273 31.1134 3.1095 31.0355C3.19895 31.0254 3.29056 31.0229 3.38788 31.02C3.67495 31.0126 4.02835 30.9952 4.54158 30.7914C5.22942 30.5176 6.21433 29.889 7.64778 28.4392C7.89447 28.19 8.19916 27.9711 8.52611 27.7348C8.6476 27.6475 8.77991 27.5499 8.90736 27.4538C9.37837 27.0984 9.87456 26.6721 10.3317 26.0399C10.8889 25.2695 11.1828 24.6479 11.4397 24.1241C11.4482 24.106 11.4568 24.0878 11.4654 24.0697C11.4763 24.0473 11.4867 24.0255 11.4981 24.003C11.7252 23.545 12.1417 23.0538 12.6801 22.6842C13.0495 22.4304 13.4671 22.2416 13.8954 22.1708C14.5578 22.0605 15.0467 21.8997 15.6615 21.6939C15.9626 21.5942 16.2198 21.3935 16.618 21.095C16.7282 21.0124 16.8545 20.9199 16.9915 20.8223C17.6055 20.3833 18.5332 19.81 19.9479 19.292C20.3147 19.1573 20.6148 19.0067 20.8883 18.8682C20.9733 18.8252 21.0561 18.7836 21.1371 18.7439C21.3967 18.6167 21.6426 18.5105 21.9082 18.4673L21.7538 18.5687C21.8475 18.5423 21.9444 18.5215 22.0452 18.5074C22.4234 18.4437 23.1312 18.3063 23.8538 18.0392C24.5507 17.7879 25.2542 17.3991 25.5589 16.8703C25.5925 16.8141 25.627 16.7579 25.6618 16.7014C25.9651 16.2121 26.257 15.7276 26.3881 15.1251C26.5579 11.7025 30.0161 11.0858 31.9784 10.2545C32.0041 10.2436 32.0299 10.2327 32.0557 10.2217C34.3355 9.25053 35.927 8.40839 36.458 8.12578C36.4832 8.11239 36.5062 8.10014 36.5269 8.08919C36.5453 8.07942 36.5618 8.07015 36.5766 8.06241C36.7967 7.94697 36.9872 7.81184 37.1692 7.67951C37.1794 7.67214 37.1895 7.66478 37.1997 7.65741C37.3966 7.51536 37.6062 7.36796 37.8778 7.23328C38.8878 6.73255 39.6885 6.27989 40.3642 5.88841C40.4901 5.81552 40.6134 5.74489 40.7337 5.67503C40.734 5.67485 40.7344 5.67467 40.7348 5.67448C41.267 5.36575 41.731 5.09625 42.1868 4.86788C43.0293 4.44591 43.5566 4.11671 43.9689 3.83963C44.098 3.75288 44.2165 3.67093 44.3287 3.59315C44.5738 3.4237 44.7786 3.28029 45.0042 3.1539C45.4283 2.91624 45.805 2.65746 46.1805 2.40156C46.2139 2.37879 46.248 2.35624 46.28 2.33424C46.6748 2.06341 47.0723 1.79708 47.5266 1.57165C47.6321 1.51932 47.8137 1.66657 47.9311 1.89977C48.0484 2.13281 48.0576 2.36422 47.9523 2.41647C47.5113 2.63528 47.1233 2.89434 46.7288 3.16501C46.6962 3.18738 46.6642 3.21005 46.63 3.23329C46.2556 3.48848 45.8715 3.75056 45.4398 3.99246C45.2219 4.11453 45.0308 4.24865 44.79 4.41502C44.6766 4.49367 44.555 4.57828 44.419 4.66965C44.0003 4.95097 43.4678 5.28426 42.6177 5.71003C42.1675 5.93556 41.7108 6.20018 41.179 6.50861C41.058 6.57885 40.9341 6.65092 40.8068 6.72464C40.1313 7.11611 39.3259 7.57106 38.3126 8.0734C38.0564 8.20046 37.8576 8.33971 37.6616 8.48107C37.6506 8.48889 37.6395 8.49671 37.6285 8.50452C37.4478 8.63587 37.2497 8.77758 37.0169 8.89971C36.9857 8.91608 36.9456 8.93664 36.8979 8.96195C36.3668 9.24465 34.7719 10.0892 32.4892 11.0612C32.4821 11.0641 32.475 11.0669 32.4679 11.0698C30.93 11.7265 30.0719 12.1015 29.5531 12.6462C29.1426 13.077 28.8088 13.3123 28.5088 13.5018C28.4529 13.5373 28.4002 13.5707 28.3499 13.602C28.1304 13.7383 27.9726 13.8378 27.8169 13.9985C27.3669 14.4732 27.1481 14.9669 26.9773 15.7584C26.8517 16.4185 26.5036 16.9663 26.2225 17.4362C26.222 17.4369 26.2216 17.4376 26.2212 17.4383C26.1861 17.495 26.1518 17.5505 26.1191 17.6051ZM-0.808572 35.6623C-0.900476 35.7283 -1.10937 35.6191 -1.27477 35.4176C-1.44022 35.2158 -1.49976 34.998 -1.40817 34.9321C-1.19014 34.7757 -0.962506 34.6108 -0.744483 34.4535C-0.652511 34.3871 -0.444196 34.4963 -0.278 34.6971C-0.111794 34.8983 -0.0509087 35.1154 -0.143089 35.1822C-0.361711 35.34 -0.590154 35.5055 -0.808572 35.6623ZM28.8944 21.4333C28.8279 21.5325 28.6476 21.4456 28.4966 21.2376C28.3453 21.0299 28.2875 20.7749 28.3551 20.675C28.3911 20.6221 28.4482 20.5309 28.5274 20.4069C29.0973 19.5099 30.8017 16.9507 33.1776 15.2298C33.3749 15.086 33.553 14.9531 33.7246 14.8255C34.446 14.287 34.7638 13.3601 36.2973 12.5959C42.7165 9.40518 49.6469 7.32411 55.7056 3.46563C57.4436 2.35768 59.3 1.42224 61.1514 0.550615C62.7124 -0.185379 65.7494 -1.09846 66.4509 -1.377C66.5601 -1.42043 66.7392 -1.26401 66.8503 -1.02786C66.9613 -0.791808 66.9624 -0.565615 66.8533 -0.522191C66.1572 -0.245816 63.1311 0.662887 61.5771 1.39554C59.7309 2.2647 57.8782 3.19751 56.1455 4.30231C50.0815 8.16417 43.6463 11.2784 37.2507 14.4571C35.74 15.2098 34.9153 15.1057 34.1994 15.6406C34.0276 15.7683 33.8491 15.9023 33.6503 16.0472C31.3159 17.7395 29.6461 20.2514 29.074 21.1545C28.9921 21.2823 28.9325 21.3773 28.8944 21.4333ZM24.1323 23.8976C23.0357 24.6434 21.4171 25.4329 20.0698 26.2185C19.4097 26.5998 18.8084 26.9737 18.3419 27.2998C17.8393 27.6513 17.4122 27.8432 17.0026 27.9898C16.8274 28.0513 16.6497 28.1094 16.4785 28.1634C16.4724 28.1654 16.4664 28.1675 16.4603 28.1695C15.8892 28.354 15.3149 28.5538 14.6025 29.1326C13.8823 29.7177 13.033 30.6841 12.168 31.6641C12.1672 31.6647 12.1665 31.6654 12.1657 31.6661C11.3114 32.6357 10.752 33.9797 10.0161 34.577C7.45182 36.6585 5.47414 37.472 4.36445 37.7421C2.41813 38.2164 1.49989 40.2742 -0.637646 40.56C-0.9542 40.4956 -1.13912 39.7192 -0.721949 39.6456C-0.707912 39.6416 -0.693877 39.6377 -0.679852 39.6338C-0.547106 39.5953 -0.43345 39.5593 -0.290944 39.4888C-0.0981018 39.3687 0.0385834 39.2591 0.158425 39.1625C0.469724 38.9152 2.75345 37.2454 3.83233 36.9825C4.8848 36.726 6.08187 35.0774 8.64328 32.9996C9.36028 32.4179 10.6567 31.9548 11.5166 30.979C11.519 30.9764 11.5213 30.9738 11.5237 30.9712C12.3813 29.9994 13.2399 29.0221 13.9775 28.4226C14.7211 27.8179 15.328 27.6053 15.9144 27.4128C15.9201 27.4111 15.9259 27.4093 15.9316 27.4076C16.0873 27.3571 16.245 27.305 16.4004 27.2506C16.822 27.1006 17.2535 26.9097 17.7706 26.5473C18.2583 26.2057 18.8802 25.8162 19.5602 25.4226C20.9347 24.6197 22.5559 23.8287 23.6278 23.0986C23.7242 23.0331 23.916 23.1583 24.0561 23.3785C24.196 23.5987 24.2299 23.8311 24.1323 23.8976ZM27.1531 28.9528C24.9533 31.1845 23.4193 32.1552 21.2716 33.2296C20.6224 33.5472 19.8936 33.8891 19.1158 34.2235C18.4261 34.7808 17.418 35.5845 16.3848 36.4074C16.3731 36.4163 16.3614 36.4252 16.3497 36.4341C15.3312 37.2452 14.3022 38.0596 13.5706 38.6541C10.9651 40.7715 9.26148 41.98 8.13687 42.2626C7.08144 42.5296 6.87937 42.6953 6.56851 42.9506C6.56001 42.9572 6.5515 42.9638 6.54298 42.9704C6.54294 42.9714 6.54288 42.9725 6.54284 42.9735C6.54022 42.9915 6.53593 43.0041 6.53336 43.0102C6.52813 43.0226 6.52212 43.0306 6.51988 43.0336C6.51469 43.0405 6.50935 43.0452 6.50753 43.0469C6.50007 43.054 6.49091 43.0614 6.48476 43.0659C6.42763 43.1074 6.23877 43.2273 6.07691 43.3112C5.91102 43.3971 5.77718 43.4413 5.63871 43.4824C5.62453 43.4866 5.61033 43.4908 5.59614 43.495C5.47001 43.5328 5.33248 43.5742 5.14544 43.6501C5.03138 43.6963 4.81428 43.5652 4.66102 43.3566C4.50793 43.1481 4.47636 42.9417 4.58978 42.8957C4.78588 42.8164 4.93165 42.7728 5.0579 42.7352C5.07197 42.7311 5.08603 42.727 5.10008 42.7229C5.23132 42.6846 5.35163 42.642 5.49758 42.5672C5.6955 42.4407 5.82818 42.3328 5.94852 42.2344C6.26967 41.9712 6.50275 41.7816 7.60657 41.503C8.67163 41.2361 10.3312 40.0694 12.9463 37.945C13.6773 37.3511 14.7047 36.5381 15.7214 35.7285C15.7331 35.7191 15.7449 35.7096 15.7566 35.7002C16.7893 34.8777 17.7986 34.0747 18.4918 33.5141C19.1282 32.9988 19.7234 32.4848 20.2815 32.0144C22.138 30.4391 23.8124 29.2176 26.6475 28.1544C26.9634 27.9408 27.2784 27.7324 27.5872 27.5267C27.6266 27.4894 27.7763 27.4167 27.8141 27.3777C27.9699 27.2593 28.169 27.1194 28.3437 26.999C29.5195 26.1971 30.5855 25.5497 31.3159 24.4721C31.4801 24.2341 32.0174 23.8064 32.8187 23.2121C33.0674 23.0304 33.3068 22.8522 33.5958 22.6435C34.2909 22.1391 35.111 21.5495 36.0486 20.8649C36.2409 20.7237 36.4146 20.5931 36.582 20.4676C37.2952 19.9331 37.8454 19.5169 39.3587 18.7626C41.2013 17.8428 44.4096 16.4753 46.1501 15.8045C47.0333 15.4619 47.5236 15.3105 47.8943 15.203C47.9964 15.1736 48.0872 15.1493 48.1704 15.1263C48.3909 15.0648 48.5495 15.0228 48.7579 14.9439C50.261 14.3749 51.2287 13.7718 52.7612 12.7599C52.8586 12.6959 53.0377 12.8307 53.1606 13.0606C53.2835 13.2906 53.304 13.5295 53.2068 13.5936C51.6736 14.6061 50.6921 15.2181 49.1702 15.7941C48.9534 15.876 48.7814 15.9214 48.5578 15.9837C48.4759 16.0062 48.3886 16.0301 48.2919 16.0579C47.9277 16.1634 47.4437 16.3124 46.5657 16.6531C44.8302 17.3217 41.6317 18.6851 39.7984 19.6002C38.3031 20.3453 37.7632 20.7524 37.0563 21.2829C36.8888 21.4085 36.7148 21.5401 36.5211 21.6824C35.5865 22.3656 34.7651 22.9567 34.0743 23.4587C33.7871 23.6663 33.5468 23.8451 33.3032 24.0238C32.4893 24.628 31.9858 25.033 31.8523 25.2325C31.1021 26.3433 29.9935 27.017 28.8437 27.8035C28.6795 27.9171 28.4919 28.0491 28.3503 28.1572C28.3069 28.202 28.135 28.2854 28.0897 28.3284C27.7791 28.5347 27.465 28.7421 27.1531 28.9528ZM58.8085 10.0387C58.7097 10.1015 58.5313 9.96454 58.41 9.73362C58.2887 9.50272 58.2702 9.26468 58.369 9.20182C58.8971 8.86691 59.2501 8.63111 59.5411 8.43926C60.0732 8.08746 60.3407 7.91229 60.7541 7.72061C61.8173 7.22778 62.8674 6.73261 63.7913 6.29764C65.3507 5.56321 66.6056 4.97516 67.2939 4.70147C67.4008 4.65905 67.5782 4.81612 67.6896 5.05212C67.8008 5.28794 67.804 5.51333 67.6972 5.55582C67.0143 5.82741 65.7689 6.41042 64.2165 7.14153C63.2917 7.57693 62.2398 8.07433 61.1704 8.57005C60.7702 8.75558 60.5169 8.92047 59.9968 9.26447C59.7063 9.45605 59.3484 9.69594 58.8085 10.0387Z" fill="black"/>
</svg>
